Coordinates
version=1
nRows=49
nColumns=12
inDegrees=yes

Units are S.I. units (second, meters, Newtons, ...)
Angles are in degrees

endheader
time	SC_y	SC_z	SC_x	AC_y	AC_z	AC_x	GH_y	GH_z	GH_yy	EL_x	PS_y
       0.0              -31.67          4.381          51.54          58.68         -11.54          14.74         -106.2          46.48          14.54           74.7          55.79
   0.02383              -31.67          4.381          51.54          58.68         -11.54          14.73         -106.2          46.48          14.52           74.7          55.79
   0.04766              -31.67          4.382          51.53          58.67         -11.54          14.73         -106.2          46.48           14.5          74.71          55.78
    0.0715              -31.68          4.383          51.53          58.67         -11.54          14.72         -106.2          46.48          14.48          74.71          55.77
   0.09533              -31.68          4.384          51.52          58.66         -11.54          14.72         -106.2          46.48          14.45          74.72          55.76
    0.1192              -31.69          4.384          51.51          58.66         -11.54          14.71         -106.2          46.47          14.43          74.73          55.76
     0.143              -31.69          4.385          51.51          58.65         -11.54          14.71         -106.2          46.47           14.4          74.73          55.75
    0.1668               -31.7          4.386           51.5          58.65         -11.54           14.7         -106.2          46.47          14.37          74.74          55.74
    0.1907               -31.7          4.387          51.49          58.64         -11.54           14.7         -106.2          46.47          14.34          74.75          55.73
    0.2145              -31.71          4.388          51.48          58.64         -11.54          14.69         -106.2          46.47           14.3          74.76          55.72
    0.2383              -31.71           4.39          51.47          58.63         -11.54          14.68         -106.2          46.47          14.26          74.77           55.7
    0.2622              -31.72          4.391          51.46          58.62         -11.54          14.67         -106.2          46.47          14.22          74.78          55.69
     0.286              -31.73          4.392          51.45          58.61         -11.54          14.67         -106.2          46.47          14.18          74.79          55.68
    0.3098              -31.73          4.394          51.44           58.6         -11.54          14.66         -106.2          46.47          14.13           74.8          55.66
    0.3336              -31.74          4.395          51.43          58.59         -11.54          14.65         -106.2          46.46          14.08          74.81          55.65
    0.3575              -31.75          4.397          51.42          58.58         -11.54          14.64         -106.2          46.46          14.03          74.82          55.63
    0.3813              -31.76          4.399           51.4          58.57         -11.54          14.63         -106.3          46.46          13.97          74.84          55.61
    0.4051              -31.77          4.401          51.38          58.56         -11.54          14.61         -106.3          46.46          13.91          74.86          55.59
     0.429              -31.78          4.403          51.37          58.54         -11.55           14.6         -106.3          46.46          13.83          74.87          55.57
    0.4528               -31.8          4.405          51.35          58.53         -11.55          14.58         -106.3          46.46          13.76          74.89          55.54
    0.4766              -31.81          4.408          51.33          58.51         -11.55          14.57         -106.3          46.45          13.67          74.91          55.52
    0.5005              -31.83          4.411           51.3           58.5         -11.55          14.55         -106.3          46.45          13.58          74.94          55.49
    0.5243              -31.84          4.414          51.28          58.48         -11.55          14.53         -106.3          46.45          13.48          74.96          55.45
    0.5481              -31.86          4.418          51.25          58.45         -11.55          14.51         -106.3          46.44          13.36          74.99          55.42
     0.572              -31.88          4.422          51.22          58.43         -11.55          14.48         -106.3          46.44          13.23          75.02          55.38
    0.5958              -31.91          4.426          51.18           58.4         -11.55          14.46         -106.3          46.44          13.09          75.06          55.33
    0.6196              -31.93          4.431          51.14          58.37         -11.55          14.42         -106.3          46.43          12.93           75.1          55.28
    0.6435              -31.96          4.437           51.1          58.34         -11.55          14.39         -106.4          46.43          12.75          75.14          55.22
    0.6673              -31.99          4.443          51.05           58.3         -11.55          14.35         -106.4          46.42          12.55          75.19          55.16
    0.6911              -32.03           4.45          50.99          58.25         -11.55          14.31         -106.4          46.41          12.32          75.25          55.08
     0.715              -32.07          4.458          50.92           58.2         -11.55          14.26         -106.4          46.41          12.06          75.31           55.0
    0.7388              -32.12          4.468          50.85          58.14         -11.55           14.2         -106.4           46.4          11.76          75.39           54.9
    0.7626              -32.18          4.479          50.76          58.08         -11.55          14.13         -106.5          46.39          11.41          75.47          54.79
    0.7865              -32.25          4.491          50.66           58.0         -11.55          14.05         -106.5          46.38          11.01          75.57          54.66
    0.8103              -32.32          4.506          50.54          57.91         -11.56          13.96         -106.5          46.36          10.54          75.69          54.51
    0.8341              -32.42          4.523           50.4           57.8         -11.56          13.85         -106.6          46.35          9.984          75.83          54.34
     0.858              -32.52          4.544          50.24          57.67         -11.56          13.72         -106.6          46.33          9.324          75.99          54.13
    0.8818              -32.65          4.569          50.04          57.52         -11.56          13.57         -106.7          46.31          8.532          76.19          53.87
    0.9056              -32.81          4.599           49.8          57.34         -11.56          13.39         -106.8          46.28          7.574          76.43          53.57
    0.9294               -33.0          4.636          49.51          57.11         -11.57          13.16         -106.9          46.24          6.404          76.72          53.19
    0.9533              -33.24          4.681          49.15          56.83         -11.57          12.88         -107.0           46.2           4.96          77.08          52.73
    0.9771              -33.54          4.737           48.7          56.48         -11.58          12.53         -107.1          46.15          3.159          77.52          52.15
     1.001              -33.91          4.808          48.13          56.04         -11.59          12.09         -107.3          46.09         0.8909          78.09          51.43
     1.025              -34.38          4.898          47.41          55.49         -11.59          11.53         -107.6           46.0         -1.993           78.8          50.51
     1.049              -34.99          5.014          46.49          54.77         -11.61          10.82         -107.9           45.9         -5.684          79.72          49.33
     1.072              -35.77          5.162           45.3          53.86         -11.62          9.897         -108.3          45.76         -10.42           80.9          47.81
     1.096              -36.76          5.352          43.79          52.69         -11.64          8.724         -108.8          45.59         -16.47           82.4          45.88
      1.12              -38.01           5.59          41.89          51.22         -11.66          7.249         -109.4          45.37         -24.08          84.29          43.45
     1.144              -39.53           5.88          39.57          49.43         -11.69          5.451         -110.2          45.11         -33.35          86.59          40.48
